# xmcd
#
# Track frame offsets:
#	150
#	12225
#	25995
#	39000
#	52287
#	63507
#	75595
#	94575
#	106365
#	120290
#	135375
#	154450
#	167812
#	185237
#	201375
#	211635
#	231602
#
# Disc length: 3286 seconds
#
# Revision: 0
# Processed by: cddbd v1.5.2PL0 Copyright (c) Steve Scherf et al.
# Submitted via: audiograbber 1.83.01
#
DISCID=e80cd411
DTITLE=Various Artist - No 1 Country Album [CD2)
DYEAR=1997
DGENRE=Country
TTITLE0=Dolly Parton - Jolene
TTITLE1=Glen Campbell - Wichita Linesman
TTITLE2=Ray Stevens - Misty
TTITLE3=Charlie Rich - Behind closed doors
TTITLE4=Roger Millar - King of the road
TTITLE5=Tammy Wynette - Stand by your man
TTITLE6=Tom T Hall - Old dogs, children, and watermelon wine
TTITLE7=Conway Twitty - It's only make believe
TTITLE8=Mac Davis - Baby don't get hooked on me
TTITLE9=Olivia Newton-John - Take me home country roads
TTITLE10=Bobby Gentry - Ode to Billy Joe
TTITLE11=Fardon Young - It's four in the morning
TTITLE12=Johnny Cash - Sunday mornin' comin' down
TTITLE13=Rita Collidge - We're all alone
TTITLE14=Kris Kristofferson - Help me make it through the night
TTITLE15=Arlo Guthrie - City of New Orleans
TTITLE16=Joe South - Don't it make you wanna go home
EXTD=
EXTT0=
EXTT1=
EXTT2=
EXTT3=
EXTT4=
EXTT5=
EXTT6=
EXTT7=
EXTT8=
EXTT9=
EXTT10=
EXTT11=
EXTT12=
EXTT13=
EXTT14=
EXTT15=
EXTT16=
PLAYORDER=
